<?xml version="1.0" encoding="UTF-8"?>
<svg version="1.1" viewBox="0 0 587.47424 799.56228" xmlns="http://www.w3.org/2000/svg">
 <defs>
  <filter id="a" color-interpolation-filters="sRGB">
   <feGaussianBlur in="SourceAlpha" result="result0" stdDeviation="2"/>
   <feComposite in="SourceGraphic" in2="result0" k2="1" k3="10" operator="arithmetic" result="result3"/>
   <feComposite in="result3" in2="result3" operator="in" result="result4"/>
  </filter>
  <filter id="j" color-interpolation-filters="sRGB">
   <feGaussianBlur in="SourceAlpha" result="result0" stdDeviation="2"/>
   <feComposite in="SourceGraphic" in2="result0" k2="1" k3="10" operator="arithmetic" result="result3"/>
   <feComposite in="result3" in2="result3" operator="in" result="result4"/>
  </filter>
  <filter id="k" color-interpolation-filters="sRGB">
   <feGaussianBlur in="SourceAlpha" result="result0" stdDeviation="2"/>
   <feComposite in="SourceGraphic" in2="result0" k2="1" k3="10" operator="arithmetic" result="result3"/>
   <feComposite in="result3" in2="result3" operator="in" result="result4"/>
  </filter>
  <filter id="i" color-interpolation-filters="sRGB">
   <feGaussianBlur in="SourceAlpha" result="result0" stdDeviation="2"/>
   <feComposite in="SourceGraphic" in2="result0" k2="1" k3="10" operator="arithmetic" result="result3"/>
   <feComposite in="result3" in2="result3" operator="in" result="result4"/>
  </filter>
  <filter id="h" color-interpolation-filters="sRGB">
   <feGaussianBlur in="SourceAlpha" result="result0" stdDeviation="2"/>
   <feComposite in="SourceGraphic" in2="result0" k2="1" k3="10" operator="arithmetic" result="result3"/>
   <feComposite in="result3" in2="result3" operator="in" result="result4"/>
  </filter>
  <filter id="l" color-interpolation-filters="sRGB">
   <feGaussianBlur in="SourceAlpha" result="result0" stdDeviation="2"/>
   <feComposite in="SourceGraphic" in2="result0" k2="1" k3="10" operator="arithmetic" result="result3"/>
   <feComposite in="result3" in2="result3" operator="in" result="result4"/>
  </filter>
  <filter id="m" color-interpolation-filters="sRGB">
   <feGaussianBlur in="SourceAlpha" result="result0" stdDeviation="2"/>
   <feComposite in="SourceGraphic" in2="result0" k2="1" k3="10" operator="arithmetic" result="result3"/>
   <feComposite in="result3" in2="result3" operator="in" result="result4"/>
  </filter>
 </defs>
 <g transform="translate(-39.288 327.2)">
  <g transform="matrix(.53134 0 0 .36275 181.14 206.22)" filter="url(#a)">
   <g transform="matrix(.99383 -.16246 .07572 .99383 -58.806 -270.08)">
    <g transform="matrix(1.1992 .23884 -.11177 1.1364 -46.896 792.3)" filter="url(#m)">
     <path transform="matrix(1.882,0,0,2.7567,-340.91,-1815.5)" d="m356 567.36c0.61728 48.872-2.7133 96.429-18 140 42.755 8.7732 82.841 4.2042 123 0-6.0524-44.824-13.282-93.179-22-146-27.667 6.6315-55.333 9.9979-83 6z" fill="#795c2e" stroke="#000" stroke-width="2.5451"/>
     <path transform="matrix(1.882,0,0,2.7567,-340.91,-1815.5)" d="m437 589.36c6.435 37.435 13.139 75.139 17 110-36.113 4.929-69.856 6.6965-98 1 102.97-4.151 80.099-67.18 81-111z" fill="#66471b"/>
    </g>
    <g transform="matrix(1.0856 .0887 -.04392 1.0529 18.295 554.42)" filter="url(#l)">
     <path transform="matrix(1.882,0,0,2.7567,-340.91,-1815.5)" d="m356 567.36c0.61728 48.872-2.7133 96.429-18 140 42.755 8.7732 82.841 4.2042 123 0-6.0524-44.824-13.282-93.179-22-146-27.667 6.6315-55.333 9.9979-83 6z" fill="#795c2e" stroke="#000" stroke-width="2.8013"/>
     <path transform="matrix(1.882,0,0,2.7567,-340.91,-1815.5)" d="m437 589.36c6.435 37.435 13.139 75.139 17 110-36.113 4.929-69.856 6.6965-98 1 102.97-4.151 80.099-67.18 81-111z" fill="#66471b"/>
    </g>
    <g transform="matrix(1 -.015874 .0067826 .99993 61.789 244.06)" filter="url(#a)" stroke-width="3">
     <path transform="matrix(1.882,0,0,2.7567,-340.91,-1815.5)" d="m356 567.36c0.61728 48.872-2.7133 96.429-18 140 42.755 8.7732 82.841 4.2042 123 0-6.0524-44.824-13.282-93.179-22-146-27.667 6.6315-55.333 9.9979-83 6z" fill="#795c2e" stroke="#000"/>
     <path transform="matrix(1.882,0,0,2.7567,-340.91,-1815.5)" d="m437 589.36c6.435 37.435 13.139 75.139 17 110-36.113 4.929-69.856 6.6965-98 1 102.97-4.151 80.099-67.18 81-111z" fill="#66471b"/>
    </g>
    <g transform="matrix(.9458 -.13709 .060698 .99561 73.415 -32.664)" filter="url(#a)" stroke-width="3.078">
     <path transform="matrix(1.882,0,0,2.7567,-340.91,-1815.5)" d="m356 567.36c0.61728 48.872-2.7133 96.429-18 140 42.755 8.7732 82.841 4.2042 123 0-6.0524-44.824-13.282-93.179-22-146-27.667 6.6315-55.333 9.9979-83 6z" fill="#795c2e" stroke="#000"/>
     <path transform="matrix(1.882,0,0,2.7567,-340.91,-1815.5)" d="m437 589.36c6.435 37.435 13.139 75.139 17 110-36.113 4.929-69.856 6.6965-98 1 102.97-4.151 80.099-67.18 81-111z" fill="#66471b"/>
    </g>
    <g transform="matrix(.88153 -.20322 .084313 .99033 77.861 -322.3)" stroke-width="3.1798">
     <path transform="matrix(1.882,0,0,2.7567,-340.91,-1815.5)" d="m356 567.36c0.61728 48.872-2.7133 96.429-18 140 42.755 8.7732 82.841 4.2042 123 0-6.0524-44.824-13.282-93.179-22-146-27.667 6.6315-55.333 9.9979-83 6z" fill="#795c2e" stroke="#000"/>
     <path transform="matrix(1.882,0,0,2.7567,-340.91,-1815.5)" d="m437 589.36c6.435 37.435 13.139 75.139 17 110-36.113 4.929-69.856 6.6965-98 1 102.97-4.151 80.099-67.18 81-111z" fill="#66471b"/>
    </g>
    <g transform="translate(-48.933,-791.17)">
     <g transform="matrix(.76972 1.1934 -.55489 .75779 208.29 -627.32)" filter="url(#i)">
      <path d="m517.24 88.147c-49.3-17.139-95.19-29.002-137.54-34.78l-14.29 48.393-14.86-51.431c-47.15-3.341-89.49 1.746-126.8 16.582l9.1333 61.158-48.778-40.379c-23.73 15.76-44.9 36.62-63.44 63.07l40.682 53.414-55.855-29.52c-12.488 21.73-23.553 46.49-33.153 74.52l34.363 35.07-40.833-15.08c-9.1473 30.285-16.752 64.022-22.788 101.4 38.79 4.409 74.739 8.1644 108.02 10.742l-0.61253-52.329 35.629 54.634c39.627 2.0831 75.136 1.9701 106.83-1.4391l-9.1239-53.742 55.307 45.653c32.079-8.1796 59.375-21.451 82.42-41.513l-37.796-57.807 62.024 32.164c16.826-21.447 30.781-48.157 42.163-81.157l-43.637-26.896 50.659 4.7003c9.4361-32.767 16.779-70.976 22.279-115.42l1e-5 4.1e-5z" fill="#447821" stroke="#000" stroke-width="6.123"/>
      <path d="m450.74 155.18c-127.81 3.94-230.76 75.02-328.39 160.43 89.55-114.91 198.42-170.2 328.39-160.43z" fill="#112b00"/>
      <path d="m445.82 158.67c-128.97 13.12-228.65 78.23-322.08 154.43 83.44-99.25 227.48-173.33 322.08-154.43z" fill="#2d5016"/>
      <path d="m229.76 70.823 11.62 90.357c-18.85-94.52 42.59-98.296 100.68-105.85-39.04-1.233-76.71 2.975-112.3 15.493z" fill="#5aa02c"/>
      <path d="m128.01 154.35 42.808 46.749c-48.39-46.12-16.82-73.9 11.41-102.44-21.52 15.57-40.11 33.69-54.22 55.69z" fill="#5aa02c"/>
      <path d="m385.13 59.849-31 86.821c25.61-93.643 89.97-71.147 152.72-53.483-39.17-17.589-79.53-29.669-121.72-33.338z" fill="#5aa02c"/>
      <path d="m80.586 251.48 60.196 29.579c-65.726-26.93-42.714-65.32-23.4-103.25-16.85 22.93-29.796 47.24-36.794 73.67z" fill="#5aa02c"/>
      <path d="m73.574 281.22c-8.055 26.8-18.939 50.76-20.652 83.9 27.335 10.07 59.958 4.28 90.358 5.16-102.82 0.16-70.468-50.37-69.706-89.06z" fill="#5aa02c"/>
      <path d="m190.37 378.32-52.133-75.798c49.882 80.447 95.133 72.91 140.58 69.033-26.33 7.7581-55.341 10.834-88.444 6.7651z" fill="#2d5016"/>
      <path d="m340.94 365.27-67.64-55.14c67.292 60.417 102.18 37.373 138.42 17.801-19.206 16.669-42.146 29.745-70.784 37.337z" fill="#2d5016"/>
      <path d="m440.38 298.06-88.177-47.368c90.652 54.328 109.04 12.082 130.43-26.146-8.024 28.415-21.204 53.503-42.255 73.514z" fill="#2d5016"/>
      <path d="m488.3 198.23-58.095-12.073c59.885 19.303 70.524-41.967 83.213-99.884-4.3608 38.95-12.135 76.512-25.118 111.96z" fill="#2d5016"/>
     </g>
     <g transform="matrix(1.1038 .2853 -.13674 1.093 -76.225 -262.68)" filter="url(#a)">
      <path d="m517.24 88.147c-49.3-17.139-95.19-29.002-137.54-34.78l-14.29 48.393-14.86-51.431c-47.15-3.341-89.49 1.746-126.8 16.582l9.1333 61.158-48.778-40.379c-23.73 15.76-44.9 36.62-63.44 63.07l40.682 53.414-55.855-29.52c-12.488 21.73-23.553 46.49-33.153 74.52l34.363 35.07-40.833-15.08c-9.1473 30.285-16.752 64.022-22.788 101.4 38.79 4.409 74.739 8.1644 108.02 10.742l-0.61253-52.329 35.629 54.634c39.627 2.0831 75.136 1.9701 106.83-1.4391l-9.1239-53.742 55.307 45.653c32.079-8.1796 59.375-21.451 82.42-41.513l-37.796-57.807 62.024 32.164c16.826-21.447 30.781-48.157 42.163-81.157l-43.637-26.896 50.659 4.7003c9.4361-32.767 16.779-70.976 22.279-115.42l1e-5 4.1e-5z" fill="#447821" stroke="#000" stroke-width="6.123"/>
      <path d="m450.74 155.18c-127.81 3.94-230.76 75.02-328.39 160.43 89.55-114.91 198.42-170.2 328.39-160.43z" fill="#112b00"/>
      <path d="m445.82 158.67c-128.97 13.12-228.65 78.23-322.08 154.43 83.44-99.25 227.48-173.33 322.08-154.43z" fill="#2d5016"/>
      <path d="m229.76 70.823 11.62 90.357c-18.85-94.52 42.59-98.296 100.68-105.85-39.04-1.233-76.71 2.975-112.3 15.493z" fill="#5aa02c"/>
      <path d="m128.01 154.35 42.808 46.749c-48.39-46.12-16.82-73.9 11.41-102.44-21.52 15.57-40.11 33.69-54.22 55.69z" fill="#5aa02c"/>
      <path d="m385.13 59.849-31 86.821c25.61-93.643 89.97-71.147 152.72-53.483-39.17-17.589-79.53-29.669-121.72-33.338z" fill="#5aa02c"/>
      <path d="m80.586 251.48 60.196 29.579c-65.726-26.93-42.714-65.32-23.4-103.25-16.85 22.93-29.796 47.24-36.794 73.67z" fill="#5aa02c"/>
      <path d="m73.574 281.22c-8.055 26.8-18.939 50.76-20.652 83.9 27.335 10.07 59.958 4.28 90.358 5.16-102.82 0.16-70.468-50.37-69.706-89.06z" fill="#5aa02c"/>
      <path d="m190.37 378.32-52.133-75.798c49.882 80.447 95.133 72.91 140.58 69.033-26.33 7.7581-55.341 10.834-88.444 6.7651z" fill="#2d5016"/>
      <path d="m340.94 365.27-67.64-55.14c67.292 60.417 102.18 37.373 138.42 17.801-19.206 16.669-42.146 29.745-70.784 37.337z" fill="#2d5016"/>
      <path d="m440.38 298.06-88.177-47.368c90.652 54.328 109.04 12.082 130.43-26.146-8.024 28.415-21.204 53.503-42.255 73.514z" fill="#2d5016"/>
      <path d="m488.3 198.23-58.095-12.073c59.885 19.303 70.524-41.967 83.213-99.884-4.3608 38.95-12.135 76.512-25.118 111.96z" fill="#2d5016"/>
     </g>
     <g transform="matrix(-1.0036 -.73104 -.33334 .99822 1030.7 278.5)" filter="url(#j)">
      <path d="m517.24 88.147c-49.3-17.139-95.19-29.002-137.54-34.78l-14.29 48.393-14.86-51.431c-47.15-3.341-89.49 1.746-126.8 16.582l9.1333 61.158-48.778-40.379c-23.73 15.76-44.9 36.62-63.44 63.07l40.682 53.414-55.855-29.52c-12.488 21.73-23.553 46.49-33.153 74.52l34.363 35.07-40.833-15.08c-9.1473 30.285-16.752 64.022-22.788 101.4 38.79 4.409 74.739 8.1644 108.02 10.742l-0.61253-52.329 35.629 54.634c39.627 2.0831 75.136 1.9701 106.83-1.4391l-9.1239-53.742 55.307 45.653c32.079-8.1796 59.375-21.451 82.42-41.513l-37.796-57.807 62.024 32.164c16.826-21.447 30.781-48.157 42.163-81.157l-43.637-26.896 50.659 4.7003c9.4361-32.767 16.779-70.976 22.279-115.42l1e-5 4.1e-5z" fill="#447821" stroke="#000" stroke-width="6.1229"/>
      <path d="m450.74 155.18c-127.81 3.94-230.76 75.02-328.39 160.43 89.55-114.91 198.42-170.2 328.39-160.43z" fill="#112b00"/>
      <path d="m445.82 158.67c-128.97 13.12-228.65 78.23-322.08 154.43 83.44-99.25 227.48-173.33 322.08-154.43z" fill="#2d5016"/>
      <path d="m229.76 70.823 11.62 90.357c-18.85-94.52 42.59-98.296 100.68-105.85-39.04-1.233-76.71 2.975-112.3 15.493z" fill="#2d5016"/>
      <path d="m128.01 154.35 42.808 46.749c-48.39-46.12-16.82-73.9 11.41-102.44-21.52 15.57-40.11 33.69-54.22 55.69z" fill="#2d5016"/>
      <path d="m385.13 59.849-31 86.821c25.61-93.643 89.97-71.147 152.72-53.483-39.17-17.589-79.53-29.669-121.72-33.338z" fill="#2d5016"/>
      <path d="m80.586 251.48 60.196 29.579c-65.726-26.93-42.714-65.32-23.4-103.25-16.85 22.93-29.796 47.24-36.794 73.67z" fill="#2d5016"/>
      <path d="m73.574 281.22c-8.055 26.8-18.939 50.76-20.652 83.9 27.335 10.07 59.958 4.28 90.358 5.16-102.82 0.16-70.468-50.37-69.706-89.06z" fill="#2d5016"/>
      <path d="m190.37 378.32-52.133-75.798c49.882 80.447 95.133 72.91 140.58 69.033-26.33 7.7581-55.341 10.834-88.444 6.7651z" fill="#2d5016"/>
      <path d="m340.94 365.27-67.64-55.14c67.292 60.417 102.18 37.373 138.42 17.801-19.206 16.669-42.146 29.745-70.784 37.337z" fill="#2d5016"/>
      <path d="m440.38 298.06-88.177-47.368c90.652 54.328 109.04 12.082 130.43-26.146-8.024 28.415-21.204 53.503-42.255 73.514z" fill="#2d5016"/>
      <path d="m488.3 198.23-58.095-12.073c59.885 19.303 70.524-41.967 83.213-99.884-4.3608 38.95-12.135 76.512-25.118 111.96z" fill="#2d5016"/>
     </g>
     <g transform="matrix(1.1207 -.023115 .0077797 .93015 415.55 -252.7)" filter="url(#k)" stroke="#000">
      <path d="m517.24 88.147c-49.3-17.139-95.19-29.002-137.54-34.78l-14.29 48.393-14.86-51.431c-47.15-3.341-89.49 1.746-126.8 16.582l9.1333 61.158-48.778-40.379c-23.73 15.76-44.9 36.62-63.44 63.07l40.682 53.414-55.855-29.52c-12.488 21.73-23.553 46.49-33.153 74.52l34.363 35.07-40.833-15.08c-9.1473 30.285-16.752 64.022-22.788 101.4 38.79 4.409 74.739 8.1644 108.02 10.742l-0.61253-52.329 35.629 54.634c39.627 2.0831 75.136 1.9701 106.83-1.4391l-9.1239-53.742 55.307 45.653c32.079-8.1796 59.375-21.451 82.42-41.513l-37.796-57.807 62.024 32.164c16.826-21.447 30.781-48.157 42.163-81.157l-43.637-26.896 50.659 4.7003c9.4361-32.767 16.779-70.976 22.279-115.42l1e-5 4.1e-5z" fill="#447821" stroke-width="6.6923"/>
      <path d="m450.74 155.18c-127.81 3.94-230.76 75.02-328.39 160.43 89.55-114.91 198.42-170.2 328.39-160.43z" fill="#112b00"/>
      <path d="m445.82 158.67c-128.97 13.12-228.65 78.23-322.08 154.43 83.44-99.25 227.48-173.33 322.08-154.43z" fill="#2d5016"/>
      <path d="m229.76 70.823 11.62 90.357c-18.85-94.52 42.59-98.296 100.68-105.85-39.04-1.233-76.71 2.975-112.3 15.493z" fill="#5aa02c"/>
      <path d="m128.01 154.35 42.808 46.749c-48.39-46.12-16.82-73.9 11.41-102.44-21.52 15.57-40.11 33.69-54.22 55.69z" fill="#5aa02c"/>
      <path d="m385.13 59.849-31 86.821c25.61-93.643 89.97-71.147 152.72-53.483-39.17-17.589-79.53-29.669-121.72-33.338z" fill="#5aa02c"/>
      <path d="m80.586 251.48 60.196 29.579c-65.726-26.93-42.714-65.32-23.4-103.25-16.85 22.93-29.796 47.24-36.794 73.67z" fill="#5aa02c"/>
      <path d="m73.574 281.22c-8.055 26.8-18.939 50.76-20.652 83.9 27.335 10.07 59.958 4.28 90.358 5.16-102.82 0.16-70.468-50.37-69.706-89.06z" fill="#5aa02c"/>
      <path d="m190.37 378.32-52.133-75.798c49.882 80.447 95.133 72.91 140.58 69.033-26.33 7.7581-55.341 10.834-88.444 6.7651z" fill="#2d5016"/>
      <path d="m340.94 365.27-67.64-55.14c67.292 60.417 102.18 37.373 138.42 17.801-19.206 16.669-42.146 29.745-70.784 37.337z" fill="#2d5016"/>
      <path d="m440.38 298.06-88.177-47.368c90.652 54.328 109.04 12.082 130.43-26.146-8.024 28.415-21.204 53.503-42.255 73.514z" fill="#2d5016"/>
      <path d="m488.3 198.23-58.095-12.073c59.885 19.303 70.524-41.967 83.213-99.884-4.3608 38.95-12.135 76.512-25.118 111.96z" fill="#2d5016"/>
     </g>
     <g transform="matrix(1.1397 -.53578 .19152 1.3022 -133.58 212.76)" filter="url(#h)">
      <path d="m517.24 88.147c-49.3-17.139-95.19-29.002-137.54-34.78l-14.29 48.393-14.86-51.431c-47.15-3.341-89.49 1.746-126.8 16.582l9.1333 61.158-48.778-40.379c-23.73 15.76-44.9 36.62-63.44 63.07l40.682 53.414-55.855-29.52c-12.488 21.73-23.553 46.49-33.153 74.52l34.363 35.07-40.833-15.08c-9.1473 30.285-16.752 64.022-22.788 101.4 38.79 4.409 74.739 8.1644 108.02 10.742l-0.61253-52.329 35.629 54.634c39.627 2.0831 75.136 1.9701 106.83-1.4391l-9.1239-53.742 55.307 45.653c32.079-8.1796 59.375-21.451 82.42-41.513l-37.796-57.807 62.024 32.164c16.826-21.447 30.781-48.157 42.163-81.157l-43.637-26.896 50.659 4.7003c9.4361-32.767 16.779-70.976 22.279-115.42l1e-5 4.1e-5z" fill="#447821" stroke="#000" stroke-width="5.4248"/>
      <path d="m450.74 155.18c-127.81 3.94-230.76 75.02-328.39 160.43 89.55-114.91 198.42-170.2 328.39-160.43z" fill="#112b00"/>
      <path d="m445.82 158.67c-128.97 13.12-228.65 78.23-322.08 154.43 83.44-99.25 227.48-173.33 322.08-154.43z" fill="#2d5016"/>
      <path d="m229.76 70.823 11.62 90.357c-18.85-94.52 42.59-98.296 100.68-105.85-39.04-1.233-76.71 2.975-112.3 15.493z" fill="#5aa02c"/>
      <path d="m128.01 154.35 42.808 46.749c-48.39-46.12-16.82-73.9 11.41-102.44-21.52 15.57-40.11 33.69-54.22 55.69z" fill="#5aa02c"/>
      <path d="m385.13 59.849-31 86.821c25.61-93.643 89.97-71.147 152.72-53.483-39.17-17.589-79.53-29.669-121.72-33.338z" fill="#5aa02c"/>
      <path d="m80.586 251.48 60.196 29.579c-65.726-26.93-42.714-65.32-23.4-103.25-16.85 22.93-29.796 47.24-36.794 73.67z" fill="#5aa02c"/>
      <path d="m73.574 281.22c-8.055 26.8-18.939 50.76-20.652 83.9 27.335 10.07 59.958 4.28 90.358 5.16-102.82 0.16-70.468-50.37-69.706-89.06z" fill="#5aa02c"/>
      <path d="m190.37 378.32-52.133-75.798c49.882 80.447 95.133 72.91 140.58 69.033-26.33 7.7581-55.341 10.834-88.444 6.7651z" fill="#2d5016"/>
      <path d="m340.94 365.27-67.64-55.14c67.292 60.417 102.18 37.373 138.42 17.801-19.206 16.669-42.146 29.745-70.784 37.337z" fill="#2d5016"/>
      <path d="m440.38 298.06-88.177-47.368c90.652 54.328 109.04 12.082 130.43-26.146-8.024 28.415-21.204 53.503-42.255 73.514z" fill="#2d5016"/>
      <path d="m488.3 198.23-58.095-12.073c59.885 19.303 70.524-41.967 83.213-99.884-4.3608 38.95-12.135 76.512-25.118 111.96z" fill="#2d5016"/>
     </g>
    </g>
   </g>
  </g>
 </g>
</svg>
